<svg width="79" height="46" viewBox="0 0 79 46" fill="none" xmlns="http://www.w3.org/2000/svg">
<path d="M74.185 2.83533C74.185 1.64533 75.155 0.685303 76.335 0.685303C77.525 0.685303 78.485 1.65533 78.485 2.83533C78.485 4.01533 77.515 4.98529 76.335 4.98529C75.145 4.98529 74.185 4.02533 74.185 2.83533Z" fill="#0B315E"/>
<path d="M55.715 2.83533C55.715 1.64533 56.685 0.685303 57.865 0.685303C59.055 0.685303 60.015 1.65533 60.015 2.83533C60.015 4.01533 59.045 4.98529 57.865 4.98529C56.685 4.98529 55.715 4.02533 55.715 2.83533Z" fill="#0B315E"/>
<path d="M55.715 23.0853C55.715 21.8953 56.685 20.9353 57.865 20.9353C59.055 20.9353 60.015 21.9053 60.015 23.0853C60.015 24.2753 59.045 25.2353 57.865 25.2353C56.685 25.2453 55.715 24.2753 55.715 23.0853Z" fill="#0B315E"/>
<path d="M37.245 2.83533C37.245 1.64533 38.2151 0.685303 39.3951 0.685303C40.5851 0.685303 41.545 1.65533 41.545 2.83533C41.545 4.01533 40.575 4.98529 39.3951 4.98529C38.2151 4.98529 37.245 4.02533 37.245 2.83533Z" fill="#0B315E"/>
<path d="M37.245 23.0853C37.245 21.8953 38.2151 20.9353 39.3951 20.9353C40.5851 20.9353 41.545 21.9053 41.545 23.0853C41.545 24.2753 40.575 25.2353 39.3951 25.2353C38.2151 25.2453 37.245 24.2753 37.245 23.0853Z" fill="#0B315E"/>
<path d="M37.245 43.3353C37.245 42.1453 38.2151 41.1853 39.3951 41.1853C40.5851 41.1853 41.545 42.1553 41.545 43.3353C41.545 44.5253 40.575 45.4853 39.3951 45.4853C38.2151 45.4953 37.245 44.5253 37.245 43.3353Z" fill="#0B315E"/>
<path d="M18.785 2.83533C18.785 1.64533 19.755 0.685303 20.935 0.685303C22.125 0.685303 23.085 1.65533 23.085 2.83533C23.085 4.01533 22.115 4.98529 20.935 4.98529C19.745 4.98529 18.785 4.02533 18.785 2.83533Z" fill="#0B315E"/>
<path d="M18.785 23.0853C18.785 21.8953 19.755 20.9353 20.935 20.9353C22.125 20.9353 23.085 21.9053 23.085 23.0853C23.085 24.2753 22.115 25.2353 20.935 25.2353C19.745 25.2453 18.785 24.2753 18.785 23.0853Z" fill="#0B315E"/>
<path d="M0.315033 2.83533C0.315033 4.02274 1.27761 4.98529 2.46503 4.98529C3.65244 4.98529 4.61505 4.02274 4.61505 2.83533C4.61505 1.64791 3.65244 0.685303 2.46503 0.685303C1.27761 0.685303 0.315033 1.64791 0.315033 2.83533Z" fill="#0B315E"/>
</svg>
