<svg width="263" height="191" viewBox="0 0 263 191" fill="none" xmlns="http://www.w3.org/2000/svg">
<path d="M144.659 49.3536C144.659 51.3807 143.016 53.0334 140.979 53.0334C138.943 53.0334 137.3 51.3898 137.3 49.3536C137.3 47.3264 138.943 45.6737 140.979 45.6737C143.016 45.6737 144.659 47.3173 144.659 49.3536Z" fill="#FFE031"/>
<path d="M164.383 49.3536C164.383 51.3807 162.739 53.0334 160.703 53.0334C158.676 53.0334 157.023 51.3898 157.023 49.3536C157.023 47.3264 158.667 45.6737 160.703 45.6737C162.73 45.6737 164.383 47.3173 164.383 49.3536Z" fill="#FFE031"/>
<path d="M184.106 49.3536C184.106 51.3807 182.462 53.0334 180.426 53.0334C178.39 53.0334 176.746 51.3898 176.746 49.3536C176.746 47.3264 178.39 45.6737 180.426 45.6737C182.462 45.6737 184.106 47.3173 184.106 49.3536Z" fill="#FFE031"/>
<path d="M203.821 49.3536C203.821 51.3807 202.177 53.0334 200.141 53.0334C198.104 53.0334 196.461 51.3898 196.461 49.3536C196.461 47.3264 198.104 45.6737 200.141 45.6737C202.177 45.6737 203.821 47.3173 203.821 49.3536Z" fill="#1D262D"/>
<path d="M223.544 49.3536C223.544 51.3807 221.9 53.0334 219.864 53.0334C217.837 53.0334 216.184 51.3898 216.184 49.3536C216.184 47.3264 217.828 45.6737 219.864 45.6737C221.9 45.6737 223.544 47.3173 223.544 49.3536Z" fill="#FFE031"/>
<path d="M243.267 49.3536C243.267 51.3807 241.624 53.0334 239.587 53.0334C237.551 53.0334 235.908 51.3898 235.908 49.3536C235.908 47.3264 237.551 45.6737 239.587 45.6737C241.624 45.6737 243.267 47.3173 243.267 49.3536Z" fill="#FFE031"/>
<path d="M262.991 49.3536C262.991 51.3807 261.347 53.0334 259.311 53.0334C257.275 53.0334 255.631 51.3898 255.631 49.3536C255.631 47.3264 257.275 45.6737 259.311 45.6737C261.347 45.6737 262.991 47.3173 262.991 49.3536Z" fill="#1D262D"/>
<path d="M144.659 64.5848C144.659 62.5524 143.012 60.9049 140.979 60.9049C138.947 60.9049 137.3 62.5524 137.3 64.5848C137.3 66.6171 138.947 68.2646 140.979 68.2646C143.012 68.2646 144.659 66.6171 144.659 64.5848Z" fill="#FFE031"/>
<path d="M164.383 64.5848C164.383 66.6119 162.739 68.2646 160.703 68.2646C158.676 68.2646 157.023 66.621 157.023 64.5848C157.023 62.5576 158.667 60.9049 160.703 60.9049C162.73 60.9049 164.383 62.5576 164.383 64.5848Z" stroke="#FFE031" stroke-miterlimit="10"/>
<path d="M184.106 64.5848C184.106 62.5524 182.459 60.9049 180.426 60.9049C178.394 60.9049 176.746 62.5524 176.746 64.5848C176.746 66.6171 178.394 68.2646 180.426 68.2646C182.459 68.2646 184.106 66.6171 184.106 64.5848Z" fill="#FFE031"/>
<path d="M203.83 64.5848C203.83 62.5524 202.182 60.9049 200.15 60.9049C198.117 60.9049 196.47 62.5524 196.47 64.5848C196.47 66.6171 198.117 68.2646 200.15 68.2646C202.182 68.2646 203.83 66.6171 203.83 64.5848Z" fill="#FFE031"/>
<path d="M223.544 64.5848C223.544 66.6119 221.9 68.2646 219.864 68.2646C217.837 68.2646 216.184 66.621 216.184 64.5848C216.184 62.5576 217.828 60.9049 219.864 60.9049C221.9 60.9049 223.544 62.5576 223.544 64.5848Z" fill="#FFE031"/>
<path d="M243.276 64.5848C243.276 62.5524 241.629 60.9049 239.597 60.9049C237.564 60.9049 235.917 62.5524 235.917 64.5848C235.917 66.6171 237.564 68.2646 239.597 68.2646C241.629 68.2646 243.276 66.6171 243.276 64.5848Z" stroke="#FFE031" stroke-miterlimit="10"/>
<path d="M263 64.5848C263 62.5524 261.352 60.9049 259.32 60.9049C257.288 60.9049 255.64 62.5524 255.64 64.5848C255.64 66.6171 257.288 68.2646 259.32 68.2646C261.352 68.2646 263 66.6171 263 64.5848Z" fill="#FFE031"/>
<path d="M144.659 79.8248C144.659 77.7924 143.012 76.1449 140.979 76.1449C138.947 76.1449 137.3 77.7924 137.3 79.8248C137.3 81.8571 138.947 83.5046 140.979 83.5046C143.012 83.5046 144.659 81.8571 144.659 79.8248Z" fill="#FFE031"/>
<path d="M164.383 79.8248C164.383 81.8519 162.739 83.5046 160.703 83.5046C158.676 83.5046 157.023 81.861 157.023 79.8248C157.023 77.7885 158.667 76.1449 160.703 76.1449C162.73 76.1449 164.383 77.7885 164.383 79.8248Z" fill="#FFE031"/>
<path d="M184.106 79.8248C184.106 77.7924 182.459 76.1449 180.426 76.1449C178.394 76.1449 176.746 77.7924 176.746 79.8248C176.746 81.8571 178.394 83.5046 180.426 83.5046C182.459 83.5046 184.106 81.8571 184.106 79.8248Z" fill="#FFE031"/>
<path d="M203.83 79.8248C203.83 77.7924 202.182 76.1449 200.15 76.1449C198.117 76.1449 196.47 77.7924 196.47 79.8248C196.47 81.8571 198.117 83.5046 200.15 83.5046C202.182 83.5046 203.83 81.8571 203.83 79.8248Z" fill="#FFE031"/>
<path d="M223.544 79.8248C223.544 81.8519 221.9 83.5046 219.864 83.5046C217.837 83.5046 216.184 81.861 216.184 79.8248C216.184 77.7885 217.828 76.1449 219.864 76.1449C221.9 76.1449 223.544 77.7885 223.544 79.8248Z" fill="#1D262D"/>
<path d="M243.276 79.8248C243.276 77.7924 241.629 76.1449 239.597 76.1449C237.564 76.1449 235.917 77.7924 235.917 79.8248C235.917 81.8571 237.564 83.5046 239.597 83.5046C241.629 83.5046 243.276 81.8571 243.276 79.8248Z" fill="#FFE031"/>
<path d="M263 79.8248C263 77.7924 261.352 76.1449 259.32 76.1449C257.288 76.1449 255.64 77.7924 255.64 79.8248C255.64 81.8571 257.288 83.5046 259.32 83.5046C261.352 83.5046 263 81.8571 263 79.8248Z" fill="#FFE031"/>
<path d="M144.659 95.0647C144.659 93.0324 143.012 91.3849 140.979 91.3849C138.947 91.3849 137.3 93.0324 137.3 95.0647C137.3 97.0971 138.947 98.7446 140.979 98.7446C143.012 98.7446 144.659 97.0971 144.659 95.0647Z" fill="#FFE031"/>
<path d="M164.383 95.0647C164.383 97.0919 162.739 98.7446 160.703 98.7446C158.676 98.7446 157.023 97.101 157.023 95.0647C157.023 93.0285 158.667 91.3849 160.703 91.3849C162.73 91.3849 164.383 93.0285 164.383 95.0647Z" fill="#1D262D"/>
<path d="M184.106 95.0647C184.106 93.0324 182.459 91.3849 180.426 91.3849C178.394 91.3849 176.746 93.0324 176.746 95.0647C176.746 97.0971 178.394 98.7446 180.426 98.7446C182.459 98.7446 184.106 97.0971 184.106 95.0647Z" fill="#FFE031"/>
<path d="M203.83 95.0647C203.83 93.0324 202.182 91.3849 200.15 91.3849C198.117 91.3849 196.47 93.0324 196.47 95.0647C196.47 97.0971 198.117 98.7446 200.15 98.7446C202.182 98.7446 203.83 97.0971 203.83 95.0647Z" stroke="#FFE031" stroke-miterlimit="10"/>
<path d="M223.544 95.0647C223.544 97.0919 221.9 98.7446 219.864 98.7446C217.837 98.7446 216.184 97.101 216.184 95.0647C216.184 93.0285 217.828 91.3849 219.864 91.3849C221.9 91.3849 223.544 93.0285 223.544 95.0647Z" fill="#FFE031"/>
<path d="M243.276 95.0647C243.276 93.0324 241.629 91.3849 239.597 91.3849C237.564 91.3849 235.917 93.0324 235.917 95.0647C235.917 97.0971 237.564 98.7446 239.597 98.7446C241.629 98.7446 243.276 97.0971 243.276 95.0647Z" fill="#FFE031"/>
<path d="M263 95.0647C263 93.0324 261.352 91.3849 259.32 91.3849C257.288 91.3849 255.64 93.0324 255.64 95.0647C255.64 97.0971 257.288 98.7446 259.32 98.7446C261.352 98.7446 263 97.0971 263 95.0647Z" fill="#FFE031"/>
<path d="M144.659 110.296C144.659 108.263 143.012 106.616 140.979 106.616C138.947 106.616 137.3 108.263 137.3 110.296C137.3 112.328 138.947 113.976 140.979 113.976C143.012 113.976 144.659 112.328 144.659 110.296Z" stroke="#FFE031" stroke-miterlimit="10"/>
<path d="M164.383 110.296C164.383 112.323 162.739 113.976 160.703 113.976C158.676 113.976 157.023 112.332 157.023 110.296C157.023 108.269 158.667 106.616 160.703 106.616C162.73 106.616 164.383 108.269 164.383 110.296Z" fill="#FFE031"/>
<path d="M184.106 110.296C184.106 108.263 182.459 106.616 180.426 106.616C178.394 106.616 176.746 108.263 176.746 110.296C176.746 112.328 178.394 113.976 180.426 113.976C182.459 113.976 184.106 112.328 184.106 110.296Z" fill="#FFE031"/>
<path d="M203.83 110.296C203.83 108.263 202.182 106.616 200.15 106.616C198.117 106.616 196.47 108.263 196.47 110.296C196.47 112.328 198.117 113.976 200.15 113.976C202.182 113.976 203.83 112.328 203.83 110.296Z" fill="#FFE031"/>
<path d="M223.544 110.296C223.544 112.323 221.9 113.976 219.864 113.976C217.837 113.976 216.184 112.332 216.184 110.296C216.184 108.269 217.828 106.616 219.864 106.616C221.9 106.616 223.544 108.269 223.544 110.296Z" fill="#FFE031"/>
<path d="M243.276 110.296C243.276 108.263 241.629 106.616 239.597 106.616C237.564 106.616 235.917 108.263 235.917 110.296C235.917 112.328 237.564 113.976 239.597 113.976C241.629 113.976 243.276 112.328 243.276 110.296Z" fill="#FFE031"/>
<path d="M263 110.296C263 108.263 261.352 106.616 259.32 106.616C257.288 106.616 255.64 108.263 255.64 110.296C255.64 112.328 257.288 113.976 259.32 113.976C261.352 113.976 263 112.328 263 110.296Z" fill="#FFE031"/>
<path d="M203.829 3.67974C203.829 1.6474 202.182 -0.00014187 200.15 -0.000141781C198.117 -0.000141693 196.47 1.6474 196.47 3.67974C196.47 5.71208 198.117 7.35962 200.15 7.35962C202.182 7.35962 203.829 5.71208 203.829 3.67974Z" fill="#FFE031"/>
<path d="M223.544 3.67974C223.544 5.70687 221.9 7.35962 219.864 7.35962C217.837 7.35962 216.184 5.716 216.184 3.67974C216.184 1.64348 217.828 -0.000141692 219.864 -0.000141781C221.9 -0.00014187 223.544 1.64348 223.544 3.67974Z" fill="#1D262D"/>
<path d="M243.277 3.67974C243.277 1.6474 241.629 -0.00014187 239.597 -0.000141781C237.564 -0.000141693 235.917 1.6474 235.917 3.67974C235.917 5.71208 237.564 7.35962 239.597 7.35962C241.629 7.35962 243.277 5.71208 243.277 3.67974Z" fill="#FFE031"/>
<path d="M263 3.67974C263 1.6474 261.352 -0.00014187 259.32 -0.000141781C257.288 -0.000141693 255.64 1.6474 255.64 3.67974C255.64 5.71208 257.288 7.35962 259.32 7.35962C261.352 7.35962 263 5.71208 263 3.67974Z" fill="#FFE031"/>
<path d="M184.106 18.9197C184.106 16.8874 182.459 15.2398 180.426 15.2398C178.394 15.2398 176.746 16.8874 176.746 18.9197C176.746 20.9521 178.394 22.5996 180.426 22.5996C182.459 22.5996 184.106 20.9521 184.106 18.9197Z" fill="#FFE031"/>
<path d="M203.829 18.9197C203.829 16.8874 202.182 15.2398 200.15 15.2398C198.117 15.2398 196.47 16.8874 196.47 18.9197C196.47 20.9521 198.117 22.5996 200.15 22.5996C202.182 22.5996 203.829 20.9521 203.829 18.9197Z" stroke="#FFE031" stroke-miterlimit="10"/>
<path d="M223.544 18.9197C223.544 20.9469 221.9 22.5996 219.864 22.5996C217.837 22.5996 216.184 20.956 216.184 18.9197C216.184 16.8835 217.828 15.2398 219.864 15.2398C221.9 15.2398 223.544 16.8835 223.544 18.9197Z" fill="#FFE031"/>
<path d="M243.277 18.9197C243.277 16.8874 241.629 15.2398 239.597 15.2398C237.564 15.2398 235.917 16.8874 235.917 18.9197C235.917 20.9521 237.564 22.5996 239.597 22.5996C241.629 22.5996 243.277 20.9521 243.277 18.9197Z" fill="#FFE031"/>
<path d="M263 18.9197C263 16.8874 261.352 15.2398 259.32 15.2398C257.288 15.2398 255.64 16.8874 255.64 18.9197C255.64 20.9521 257.288 22.5996 259.32 22.5996C261.352 22.5996 263 20.9521 263 18.9197Z" fill="#FFE031"/>
<path d="M164.383 34.1507C164.383 36.1778 162.739 37.8306 160.703 37.8306C158.676 37.8306 157.023 36.1869 157.023 34.1507C157.023 32.1236 158.667 30.4708 160.703 30.4708C162.73 30.4708 164.383 32.1236 164.383 34.1507Z" fill="#FFE031"/>
<path d="M184.106 34.1507C184.106 32.1183 182.459 30.4708 180.426 30.4708C178.394 30.4708 176.746 32.1183 176.746 34.1507C176.746 36.183 178.394 37.8306 180.426 37.8306C182.459 37.8306 184.106 36.183 184.106 34.1507Z" fill="#FFE031"/>
<path d="M203.83 34.1507C203.83 32.1183 202.182 30.4708 200.15 30.4708C198.117 30.4708 196.47 32.1183 196.47 34.1507C196.47 36.183 198.117 37.8306 200.15 37.8306C202.182 37.8306 203.83 36.183 203.83 34.1507Z" fill="#FFE031"/>
<path d="M223.544 34.1507C223.544 36.1778 221.9 37.8306 219.864 37.8306C217.837 37.8306 216.184 36.1869 216.184 34.1507C216.184 32.1236 217.828 30.4708 219.864 30.4708C221.9 30.4708 223.544 32.1236 223.544 34.1507Z" fill="#FFE031"/>
<path d="M243.277 34.1507C243.277 32.1183 241.629 30.4708 239.597 30.4708C237.564 30.4708 235.917 32.1183 235.917 34.1507C235.917 36.183 237.564 37.8306 239.597 37.8306C241.629 37.8306 243.277 36.183 243.277 34.1507Z" fill="#FFE031"/>
<path d="M263 34.1507C263 32.1183 261.352 30.4708 259.32 30.4708C257.288 30.4708 255.64 32.1183 255.64 34.1507C255.64 36.183 257.288 37.8306 259.32 37.8306C261.352 37.8306 263 36.183 263 34.1507Z" fill="#FFE031"/>
<path d="M47.8065 125.512C47.8065 127.539 46.1629 129.192 44.1267 129.192C42.0904 129.192 40.4468 127.548 40.4468 125.512C40.4468 123.485 42.0904 121.832 44.1267 121.832C46.1629 121.832 47.8065 123.476 47.8065 125.512Z" fill="#FFE031"/>
<path d="M67.521 125.512C67.521 127.539 65.8774 129.192 63.8411 129.192C61.8049 129.192 60.1613 127.548 60.1613 125.512C60.1613 123.485 61.8049 121.832 63.8411 121.832C65.8774 121.832 67.521 123.476 67.521 125.512Z" fill="#1D262D"/>
<path d="M87.2444 125.512C87.2444 127.539 85.6008 129.192 83.5646 129.192C81.5374 129.192 79.8846 127.548 79.8846 125.512C79.8846 123.485 81.5283 121.832 83.5646 121.832C85.6008 121.832 87.2444 123.476 87.2444 125.512Z" fill="#FFE031"/>
<path d="M106.968 125.512C106.968 127.539 105.324 129.192 103.288 129.192C101.252 129.192 99.608 127.548 99.608 125.512C99.608 123.485 101.252 121.832 103.288 121.832C105.324 121.832 106.968 123.476 106.968 125.512Z" fill="#FFE031"/>
<path d="M126.691 125.512C126.691 127.539 125.048 129.192 123.011 129.192C120.975 129.192 119.331 127.548 119.331 125.512C119.331 123.485 120.975 121.832 123.011 121.832C125.048 121.832 126.691 123.476 126.691 125.512Z" fill="#1D262D"/>
<path d="M28.0831 140.743C28.0831 142.77 26.4395 144.423 24.4032 144.423C22.3761 144.423 20.7233 142.779 20.7233 140.743C20.7233 138.716 22.3669 137.063 24.4032 137.063C26.4303 137.063 28.0831 138.716 28.0831 140.743Z" stroke="#FFE031" stroke-miterlimit="10"/>
<path d="M47.8065 140.743C47.8065 138.711 46.159 137.063 44.1267 137.063C42.0943 137.063 40.4468 138.711 40.4468 140.743C40.4468 142.775 42.0943 144.423 44.1267 144.423C46.159 144.423 47.8065 142.775 47.8065 140.743Z" fill="#FFE031"/>
<path d="M67.53 140.743C67.53 138.711 65.8824 137.063 63.8501 137.063C61.8178 137.063 60.1702 138.711 60.1702 140.743C60.1702 142.775 61.8178 144.423 63.8501 144.423C65.8824 144.423 67.53 142.775 67.53 140.743Z" fill="#FFE031"/>
<path d="M87.2444 140.743C87.2444 142.77 85.6008 144.423 83.5646 144.423C81.5374 144.423 79.8846 142.779 79.8846 140.743C79.8846 138.716 81.5283 137.063 83.5646 137.063C85.6008 137.063 87.2444 138.716 87.2444 140.743Z" fill="#FFE031"/>
<path d="M106.977 140.743C106.977 138.711 105.329 137.063 103.297 137.063C101.265 137.063 99.6172 138.711 99.6172 140.743C99.6172 142.775 101.265 144.423 103.297 144.423C105.329 144.423 106.977 142.775 106.977 140.743Z" stroke="#FFE031" stroke-miterlimit="10"/>
<path d="M126.7 140.743C126.7 138.711 125.053 137.063 123.02 137.063C120.988 137.063 119.341 138.711 119.341 140.743C119.341 142.775 120.988 144.423 123.02 144.423C125.053 144.423 126.7 142.775 126.7 140.743Z" fill="#FFE031"/>
<path d="M8.35976 155.983C8.35976 153.95 6.71222 152.303 4.67988 152.303C2.64754 152.303 1 153.95 1 155.983C1 158.015 2.64754 159.663 4.67988 159.663C6.71222 159.663 8.35976 158.015 8.35976 155.983Z" fill="#FFE031"/>
<path d="M28.0831 155.983C28.0831 158.01 26.4395 159.663 24.4032 159.663C22.3761 159.663 20.7233 158.019 20.7233 155.983C20.7233 153.947 22.3669 152.303 24.4032 152.303C26.4303 152.303 28.0831 153.947 28.0831 155.983Z" fill="#FFE031"/>
<path d="M47.8065 155.983C47.8065 153.95 46.159 152.303 44.1267 152.303C42.0943 152.303 40.4468 153.95 40.4468 155.983C40.4468 158.015 42.0943 159.663 44.1267 159.663C46.159 159.663 47.8065 158.015 47.8065 155.983Z" fill="#FFE031"/>
<path d="M67.53 155.983C67.53 153.95 65.8824 152.303 63.8501 152.303C61.8178 152.303 60.1702 153.95 60.1702 155.983C60.1702 158.015 61.8178 159.663 63.8501 159.663C65.8824 159.663 67.53 158.015 67.53 155.983Z" fill="#FFE031"/>
<path d="M87.2444 155.983C87.2444 158.01 85.6008 159.663 83.5646 159.663C81.5374 159.663 79.8846 158.019 79.8846 155.983C79.8846 153.947 81.5283 152.303 83.5646 152.303C85.6008 152.303 87.2444 153.947 87.2444 155.983Z" fill="#1D262D"/>
<path d="M106.977 155.983C106.977 153.95 105.329 152.303 103.297 152.303C101.265 152.303 99.6172 153.95 99.6172 155.983C99.6172 158.015 101.265 159.663 103.297 159.663C105.329 159.663 106.977 158.015 106.977 155.983Z" fill="#FFE031"/>
<path d="M126.7 155.983C126.7 153.95 125.053 152.303 123.02 152.303C120.988 152.303 119.341 153.95 119.341 155.983C119.341 158.015 120.988 159.663 123.02 159.663C125.053 159.663 126.7 158.015 126.7 155.983Z" fill="#FFE031"/>
<path d="M8.35976 171.223C8.35976 169.191 6.71222 167.543 4.67988 167.543C2.64754 167.543 1 169.191 1 171.223C1 173.255 2.64754 174.903 4.67988 174.903C6.71222 174.903 8.35976 173.255 8.35976 171.223Z" fill="#FFE031"/>
<path d="M28.0831 171.223C28.0831 173.25 26.4395 174.903 24.4032 174.903C22.3761 174.903 20.7233 173.259 20.7233 171.223C20.7233 169.187 22.3669 167.543 24.4032 167.543C26.4303 167.543 28.0831 169.187 28.0831 171.223Z" fill="#1D262D"/>
<path d="M47.8065 171.223C47.8065 169.191 46.159 167.543 44.1267 167.543C42.0943 167.543 40.4468 169.191 40.4468 171.223C40.4468 173.255 42.0943 174.903 44.1267 174.903C46.159 174.903 47.8065 173.255 47.8065 171.223Z" fill="#FFE031"/>
<path d="M67.53 171.223C67.53 169.191 65.8824 167.543 63.8501 167.543C61.8178 167.543 60.1702 169.191 60.1702 171.223C60.1702 173.255 61.8178 174.903 63.8501 174.903C65.8824 174.903 67.53 173.255 67.53 171.223Z" stroke="#FFE031" stroke-miterlimit="10"/>
<path d="M87.2444 171.223C87.2444 173.25 85.6008 174.903 83.5646 174.903C81.5374 174.903 79.8846 173.259 79.8846 171.223C79.8846 169.187 81.5283 167.543 83.5646 167.543C85.6008 167.543 87.2444 169.187 87.2444 171.223Z" fill="#FFE031"/>
<path d="M106.977 171.223C106.977 169.191 105.329 167.543 103.297 167.543C101.265 167.543 99.6172 169.191 99.6172 171.223C99.6172 173.255 101.265 174.903 103.297 174.903C105.329 174.903 106.977 173.255 106.977 171.223Z" fill="#FFE031"/>
<path d="M126.7 171.223C126.7 169.191 125.053 167.543 123.02 167.543C120.988 167.543 119.341 169.191 119.341 171.223C119.341 173.255 120.988 174.903 123.02 174.903C125.053 174.903 126.7 173.255 126.7 171.223Z" fill="#FFE031"/>
<path d="M8.35976 186.454C8.35976 184.422 6.71222 182.774 4.67988 182.774C2.64754 182.774 1 184.422 1 186.454C1 188.486 2.64754 190.134 4.67988 190.134C6.71222 190.134 8.35976 188.486 8.35976 186.454Z" stroke="#FFE031" stroke-miterlimit="10"/>
<path d="M28.0831 186.454C28.0831 188.481 26.4395 190.134 24.4032 190.134C22.3761 190.134 20.7233 188.49 20.7233 186.454C20.7233 184.427 22.3669 182.774 24.4032 182.774C26.4303 182.774 28.0831 184.427 28.0831 186.454Z" fill="#FFE031"/>
<path d="M47.8065 186.454C47.8065 184.422 46.159 182.774 44.1267 182.774C42.0943 182.774 40.4468 184.422 40.4468 186.454C40.4468 188.486 42.0943 190.134 44.1267 190.134C46.159 190.134 47.8065 188.486 47.8065 186.454Z" fill="#FFE031"/>
<path d="M67.5302 186.454C67.5302 184.422 65.8826 182.774 63.8503 182.774C61.8179 182.774 60.1704 184.422 60.1704 186.454C60.1704 188.486 61.8179 190.134 63.8503 190.134C65.8826 190.134 67.5302 188.486 67.5302 186.454Z" fill="#FFE031"/>
<path d="M87.2444 186.454C87.2444 188.481 85.6008 190.134 83.5646 190.134C81.5374 190.134 79.8846 188.49 79.8846 186.454C79.8846 184.427 81.5283 182.774 83.5646 182.774C85.6008 182.774 87.2444 184.427 87.2444 186.454Z" fill="#FFE031"/>
<path d="M106.977 186.454C106.977 184.422 105.329 182.774 103.297 182.774C101.265 182.774 99.6172 184.422 99.6172 186.454C99.6172 188.486 101.265 190.134 103.297 190.134C105.329 190.134 106.977 188.486 106.977 186.454Z" fill="#FFE031"/>
<path d="M126.7 186.454C126.7 184.422 125.053 182.774 123.021 182.774C120.988 182.774 119.341 184.422 119.341 186.454C119.341 188.486 120.988 190.134 123.021 190.134C125.053 190.134 126.7 188.486 126.7 186.454Z" fill="#FFE031"/>
<path d="M119.563 64.596C119.563 62.5637 121.211 60.9161 123.243 60.9161C125.276 60.9161 126.923 62.5637 126.923 64.596C126.923 66.6283 125.276 68.2759 123.243 68.2759C121.211 68.2759 119.563 66.6283 119.563 64.596Z" fill="#FFE031"/>
<path d="M119.563 79.8357C119.563 77.8034 121.211 76.1559 123.243 76.1559C125.276 76.1559 126.923 77.8034 126.923 79.8357C126.923 81.8681 125.276 83.5156 123.243 83.5156C121.211 83.5156 119.563 81.8681 119.563 79.8357Z" fill="#FFE031"/>
<path d="M99.8399 79.8357C99.8399 81.8629 101.484 83.5156 103.52 83.5156C105.547 83.5156 107.2 81.872 107.2 79.8357C107.2 77.7995 105.556 76.1559 103.52 76.1559C101.493 76.1559 99.8399 77.7995 99.8399 79.8357Z" fill="#FFE031"/>
<path d="M119.563 95.0757C119.563 93.0434 121.211 91.3959 123.243 91.3959C125.276 91.3959 126.923 93.0434 126.923 95.0757C126.923 97.1081 125.276 98.7556 123.243 98.7556C121.211 98.7556 119.563 97.1081 119.563 95.0757Z" fill="#FFE031"/>
<path d="M99.8399 95.0757C99.8399 97.1029 101.484 98.7556 103.52 98.7556C105.547 98.7556 107.2 97.112 107.2 95.0757C107.2 93.0395 105.556 91.3959 103.52 91.3959C101.493 91.3959 99.8399 93.0395 99.8399 95.0757Z" fill="#1D262D"/>
<path d="M80.1166 95.0757C80.1166 93.0434 81.7642 91.3959 83.7965 91.3959C85.8288 91.3959 87.4764 93.0434 87.4764 95.0757C87.4764 97.1081 85.8288 98.7556 83.7965 98.7556C81.7642 98.7556 80.1166 97.1081 80.1166 95.0757Z" fill="#FFE031"/>
<path d="M119.563 110.307C119.563 108.274 121.211 106.627 123.243 106.627C125.276 106.627 126.923 108.274 126.923 110.307C126.923 112.339 125.276 113.987 123.243 113.987C121.211 113.987 119.563 112.339 119.563 110.307Z" stroke="#FFE031" stroke-miterlimit="10"/>
<path d="M99.8399 110.307C99.8399 112.334 101.484 113.987 103.52 113.987C105.547 113.987 107.2 112.343 107.2 110.307C107.2 108.28 105.556 106.627 103.52 106.627C101.493 106.627 99.8399 108.28 99.8399 110.307Z" fill="#FFE031"/>
<path d="M80.1166 110.307C80.1166 108.274 81.7642 106.627 83.7965 106.627C85.8288 106.627 87.4764 108.274 87.4764 110.307C87.4764 112.339 85.8288 113.987 83.7965 113.987C81.7642 113.987 80.1166 112.339 80.1166 110.307Z" fill="#FFE031"/>
<path d="M60.393 110.307C60.393 108.274 62.0406 106.627 64.0729 106.627C66.1053 106.627 67.7528 108.274 67.7528 110.307C67.7528 112.339 66.1053 113.987 64.0729 113.987C62.0406 113.987 60.393 112.339 60.393 110.307Z" fill="#FFE031"/>
<path d="M144.659 140.741C144.659 138.708 143.012 137.061 140.979 137.061C138.947 137.061 137.3 138.708 137.3 140.741C137.3 142.773 138.947 144.421 140.979 144.421C143.012 144.421 144.659 142.773 144.659 140.741Z" fill="#FFE031"/>
<path d="M144.659 155.981C144.659 153.948 143.012 152.301 140.979 152.301C138.947 152.301 137.3 153.948 137.3 155.981C137.3 158.013 138.947 159.66 140.979 159.66C143.012 159.66 144.659 158.013 144.659 155.981Z" fill="#FFE031"/>
<path d="M164.383 155.981C164.383 158.008 162.739 159.66 160.703 159.66C158.676 159.66 157.023 158.017 157.023 155.981C157.023 153.944 158.667 152.301 160.703 152.301C162.73 152.301 164.383 153.944 164.383 155.981Z" fill="#FFE031"/>
<path d="M144.659 171.221C144.659 169.188 143.012 167.541 140.979 167.541C138.947 167.541 137.3 169.188 137.3 171.221C137.3 173.253 138.947 174.901 140.979 174.901C143.012 174.901 144.659 173.253 144.659 171.221Z" fill="#FFE031"/>
<path d="M164.383 171.221C164.383 173.248 162.739 174.901 160.703 174.901C158.676 174.901 157.023 173.257 157.023 171.221C157.023 169.184 158.667 167.541 160.703 167.541C162.73 167.541 164.383 169.184 164.383 171.221Z" fill="#1D262D"/>
<path d="M184.106 171.221C184.106 169.188 182.459 167.541 180.426 167.541C178.394 167.541 176.746 169.188 176.746 171.221C176.746 173.253 178.394 174.901 180.426 174.901C182.459 174.901 184.106 173.253 184.106 171.221Z" fill="#FFE031"/>
<path d="M144.659 186.451C144.659 184.419 143.012 182.772 140.979 182.772C138.947 182.772 137.3 184.419 137.3 186.451C137.3 188.484 138.947 190.131 140.979 190.131C143.012 190.131 144.659 188.484 144.659 186.451Z" stroke="#FFE031" stroke-miterlimit="10"/>
<path d="M164.383 186.451C164.383 188.479 162.739 190.131 160.703 190.131C158.676 190.131 157.023 188.488 157.023 186.451C157.023 184.424 158.667 182.772 160.703 182.772C162.73 182.772 164.383 184.424 164.383 186.451Z" fill="#FFE031"/>
<path d="M184.106 186.451C184.106 184.419 182.459 182.772 180.426 182.772C178.394 182.772 176.746 184.419 176.746 186.451C176.746 188.484 178.394 190.131 180.426 190.131C182.459 190.131 184.106 188.484 184.106 186.451Z" fill="#FFE031"/>
<path d="M203.83 186.451C203.83 184.419 202.182 182.772 200.15 182.772C198.117 182.772 196.47 184.419 196.47 186.451C196.47 188.484 198.117 190.131 200.15 190.131C202.182 190.131 203.83 188.484 203.83 186.451Z" fill="#FFE031"/>
<path d="M144.659 125.499C144.659 127.526 143.016 129.179 140.979 129.179C138.943 129.179 137.299 127.535 137.299 125.499C137.299 123.472 138.943 121.819 140.979 121.819C143.016 121.819 144.659 123.463 144.659 125.499Z" fill="#FFE031"/>
<path d="M164.383 125.499C164.383 127.526 162.739 129.179 160.703 129.179C158.676 129.179 157.023 127.535 157.023 125.499C157.023 123.472 158.667 121.819 160.703 121.819C162.73 121.819 164.383 123.463 164.383 125.499Z" fill="#FFE031"/>
<path d="M184.106 125.499C184.106 127.526 182.462 129.179 180.426 129.179C178.39 129.179 176.746 127.535 176.746 125.499C176.746 123.472 178.39 121.819 180.426 121.819C182.462 121.819 184.106 123.463 184.106 125.499Z" fill="#FFE031"/>
<path d="M203.821 125.499C203.821 127.526 202.177 129.179 200.141 129.179C198.104 129.179 196.461 127.535 196.461 125.499C196.461 123.472 198.104 121.819 200.141 121.819C202.177 121.819 203.821 123.463 203.821 125.499Z" fill="#1D262D"/>
<path d="M223.544 125.499C223.544 127.526 221.9 129.179 219.864 129.179C217.837 129.179 216.184 127.535 216.184 125.499C216.184 123.472 217.828 121.819 219.864 121.819C221.9 121.819 223.544 123.463 223.544 125.499Z" fill="#FFE031"/>
<path d="M243.267 125.499C243.267 127.526 241.624 129.179 239.587 129.179C237.551 129.179 235.908 127.535 235.908 125.499C235.908 123.472 237.551 121.819 239.587 121.819C241.624 121.819 243.267 123.463 243.267 125.499Z" fill="#FFE031"/>
<path d="M262.991 125.499C262.991 127.526 261.347 129.179 259.311 129.179C257.274 129.179 255.631 127.535 255.631 125.499C255.631 123.472 257.274 121.819 259.311 121.819C261.347 121.819 262.991 123.463 262.991 125.499Z" fill="#1D262D"/>
<path d="M164.383 140.73C164.383 142.757 162.739 144.41 160.703 144.41C158.676 144.41 157.023 142.766 157.023 140.73C157.023 138.703 158.667 137.05 160.703 137.05C162.73 137.05 164.383 138.703 164.383 140.73Z" stroke="#FFE031" stroke-miterlimit="10"/>
<path d="M184.106 140.73C184.106 138.698 182.458 137.05 180.426 137.05C178.394 137.05 176.746 138.698 176.746 140.73C176.746 142.762 178.394 144.41 180.426 144.41C182.458 144.41 184.106 142.762 184.106 140.73Z" fill="#FFE031"/>
<path d="M203.829 140.73C203.829 138.698 202.182 137.05 200.15 137.05C198.117 137.05 196.47 138.698 196.47 140.73C196.47 142.762 198.117 144.41 200.15 144.41C202.182 144.41 203.829 142.762 203.829 140.73Z" fill="#FFE031"/>
<path d="M223.544 140.73C223.544 142.757 221.9 144.41 219.864 144.41C217.837 144.41 216.184 142.766 216.184 140.73C216.184 138.703 217.828 137.05 219.864 137.05C221.9 137.05 223.544 138.703 223.544 140.73Z" fill="#FFE031"/>
<path d="M243.276 140.73C243.276 138.698 241.629 137.05 239.597 137.05C237.564 137.05 235.917 138.698 235.917 140.73C235.917 142.762 237.564 144.41 239.597 144.41C241.629 144.41 243.276 142.762 243.276 140.73Z" stroke="#FFE031" stroke-miterlimit="10"/>
<path d="M263 140.73C263 138.698 261.352 137.05 259.32 137.05C257.288 137.05 255.64 138.698 255.64 140.73C255.64 142.762 257.288 144.41 259.32 144.41C261.352 144.41 263 142.762 263 140.73Z" fill="#FFE031"/>
<path d="M184.106 155.97C184.106 153.937 182.458 152.29 180.426 152.29C178.394 152.29 176.746 153.937 176.746 155.97C176.746 158.002 178.394 159.65 180.426 159.65C182.458 159.65 184.106 158.002 184.106 155.97Z" fill="#FFE031"/>
<path d="M203.829 155.97C203.829 153.937 202.182 152.29 200.15 152.29C198.117 152.29 196.47 153.937 196.47 155.97C196.47 158.002 198.117 159.65 200.15 159.65C202.182 159.65 203.829 158.002 203.829 155.97Z" fill="#FFE031"/>
<path d="M223.544 155.97C223.544 157.997 221.9 159.65 219.864 159.65C217.837 159.65 216.184 158.006 216.184 155.97C216.184 153.934 217.828 152.29 219.864 152.29C221.9 152.29 223.544 153.934 223.544 155.97Z" fill="#1D262D"/>
<path d="M243.276 155.97C243.276 153.937 241.629 152.29 239.597 152.29C237.564 152.29 235.917 153.937 235.917 155.97C235.917 158.002 237.564 159.65 239.597 159.65C241.629 159.65 243.276 158.002 243.276 155.97Z" fill="#FFE031"/>
<path d="M263 155.97C263 153.937 261.352 152.29 259.32 152.29C257.288 152.29 255.64 153.937 255.64 155.97C255.64 158.002 257.288 159.65 259.32 159.65C261.352 159.65 263 158.002 263 155.97Z" fill="#FFE031"/>
<path d="M203.829 171.21C203.829 169.178 202.182 167.53 200.15 167.53C198.117 167.53 196.47 169.178 196.47 171.21C196.47 173.242 198.117 174.89 200.15 174.89C202.182 174.89 203.829 173.242 203.829 171.21Z" stroke="#FFE031" stroke-miterlimit="10"/>
<path d="M223.544 171.21C223.544 173.237 221.9 174.89 219.864 174.89C217.837 174.89 216.184 173.246 216.184 171.21C216.184 169.174 217.828 167.53 219.864 167.53C221.9 167.53 223.544 169.174 223.544 171.21Z" fill="#FFE031"/>
<path d="M243.276 171.21C243.276 169.178 241.629 167.53 239.597 167.53C237.564 167.53 235.917 169.178 235.917 171.21C235.917 173.242 237.564 174.89 239.597 174.89C241.629 174.89 243.276 173.242 243.276 171.21Z" fill="#FFE031"/>
<path d="M263 171.21C263 169.178 261.352 167.53 259.32 167.53C257.288 167.53 255.64 169.178 255.64 171.21C255.64 173.242 257.288 174.89 259.32 174.89C261.352 174.89 263 173.242 263 171.21Z" fill="#FFE031"/>
<path d="M223.544 186.441C223.544 188.468 221.9 190.121 219.864 190.121C217.837 190.121 216.184 188.477 216.184 186.441C216.184 184.414 217.828 182.761 219.864 182.761C221.9 182.761 223.544 184.414 223.544 186.441Z" fill="#FFE031"/>
<path d="M243.276 186.441C243.276 184.409 241.629 182.761 239.597 182.761C237.564 182.761 235.917 184.409 235.917 186.441C235.917 188.473 237.564 190.121 239.597 190.121C241.629 190.121 243.276 188.473 243.276 186.441Z" fill="#FFE031"/>
<path d="M263 186.441C263 184.409 261.352 182.761 259.32 182.761C257.288 182.761 255.64 184.409 255.64 186.441C255.64 188.473 257.288 190.121 259.32 190.121C261.352 190.121 263 188.473 263 186.441Z" fill="#FFE031"/>
</svg>
