<svg width="259" height="267" viewBox="0 0 259 267" fill="none" xmlns="http://www.w3.org/2000/svg">
<path d="M102.73 254.672C63.9267 254.672 27.4437 239.557 0 212.123L1.31395 210.809C57.2358 266.731 148.215 266.731 204.137 210.809C231.226 183.719 246.146 147.702 246.146 109.402C246.146 71.1023 231.226 35.076 204.137 7.99565L205.451 6.6817C232.894 34.1254 248 70.6084 248 109.412C248 148.215 232.885 184.698 205.451 212.142C178.016 239.567 141.533 254.672 102.73 254.672Z" fill="#0B315E"/>
<path d="M102.73 244.618C68.0829 244.618 33.4451 231.432 7.07298 205.06L8.38693 203.746C60.4042 255.763 145.046 255.763 197.073 203.746C249.09 151.729 249.09 67.0773 197.073 15.06L198.387 13.7461C251.131 66.4902 251.131 152.316 198.387 205.069C172.015 231.432 137.368 244.618 102.73 244.618Z" fill="#0B315E"/>
<path d="M102.73 234.684C69.2662 234.684 37.806 221.647 14.1364 197.987L15.4503 196.673C38.7659 219.988 69.76 232.82 102.72 232.82C135.69 232.82 166.684 219.979 189.991 196.673C213.306 173.357 226.138 142.363 226.138 109.403C226.138 76.4329 213.297 45.4387 189.991 22.1325L191.305 20.8185C214.965 44.4788 228.002 75.9483 228.002 109.412C228.002 142.876 214.965 174.336 191.305 198.005C167.654 221.647 136.193 234.684 102.73 234.684Z" fill="#0B315E"/>
<path d="M102.73 224.629C73.2082 224.629 43.6864 213.391 21.2095 190.914L22.5235 189.6C66.7503 233.827 138.71 233.827 182.937 189.6C227.163 145.373 227.163 73.414 182.937 29.1872L184.25 27.8733C229.204 72.8269 229.204 145.97 184.25 190.914C161.774 213.391 132.252 224.629 102.73 224.629Z" fill="#0B315E"/>
<path d="M102.73 214.639C75.7709 214.639 48.8024 204.379 28.2731 183.85L29.5871 182.536C69.9187 222.868 135.532 222.868 175.854 182.536C216.186 142.204 216.186 76.5911 175.854 36.2688L177.168 34.9549C218.217 76.004 218.217 142.81 177.168 183.859C156.658 204.379 129.689 214.639 102.73 214.639Z" fill="#0B315E"/>
<path d="M102.73 204.65C78.3241 204.65 53.9182 195.359 35.3459 176.787L36.6599 175.473C73.0869 211.9 132.363 211.9 168.79 175.473C186.44 157.823 196.16 134.358 196.16 109.403C196.16 84.4472 186.44 60.9825 168.79 43.3328L170.104 42.0189C188.108 60.0134 198.014 83.9533 198.014 109.403C198.014 134.852 188.099 158.792 170.104 176.787C151.532 195.359 127.136 204.65 102.73 204.65Z" fill="#0B315E"/>
<path d="M102.73 194.66C80.8869 194.66 59.0437 186.347 42.4097 169.713L43.7237 168.399C76.2554 200.931 129.186 200.931 161.718 168.399C194.25 135.868 194.25 82.937 161.718 50.4052L163.032 49.0913C196.29 82.3499 196.29 136.464 163.032 169.723C146.416 186.338 124.573 194.66 102.73 194.66Z" fill="#0B315E"/>
<path d="M160.693 0L155.316 5.3676V0H160.693Z" fill="#0B315E"/>
<path d="M170.645 0L155.316 15.3293V9.96175L165.277 0H170.645Z" fill="#0B315E"/>
<path d="M200.446 0L155.316 45.1214V39.8377L195.153 0H200.446Z" fill="#0B315E"/>
<path d="M190.568 0L155.316 35.2435V29.8759L185.201 0H190.568Z" fill="#0B315E"/>
<path d="M180.607 0L155.316 25.2911V19.9142L175.239 0H180.607Z" fill="#0B315E"/>
<path d="M113.73 266.672C74.9267 266.672 38.4437 251.557 11 224.123L12.3139 222.809C68.2358 278.731 159.215 278.731 215.137 222.809C242.226 195.719 257.146 159.702 257.146 121.402C257.146 83.1023 242.226 47.076 215.137 19.9956L216.451 18.6817C243.894 46.1254 259 82.6084 259 121.412C259 160.215 243.885 196.698 216.451 224.142C189.016 251.567 152.533 266.672 113.73 266.672Z" fill="#0B315E"/>
<path d="M113.73 256.618C79.0829 256.618 44.4451 243.432 18.073 217.06L19.3869 215.746C71.4042 267.763 156.046 267.763 208.073 215.746C260.09 163.729 260.09 79.0773 208.073 27.06L209.387 25.7461C262.131 78.4902 262.131 164.316 209.387 217.069C183.015 243.432 148.368 256.618 113.73 256.618Z" fill="#0B315E"/>
<path d="M113.73 246.684C80.2662 246.684 48.806 233.647 25.1364 209.987L26.4503 208.673C49.7659 231.988 80.76 244.82 113.72 244.82C146.69 244.82 177.684 231.979 200.991 208.673C224.306 185.357 237.138 154.363 237.138 121.403C237.138 88.4329 224.297 57.4387 200.991 34.1325L202.305 32.8185C225.965 56.4788 239.002 87.9483 239.002 121.412C239.002 154.876 225.965 186.336 202.305 210.005C178.654 233.647 147.193 246.684 113.73 246.684Z" fill="#0B315E"/>
<path d="M113.73 236.629C84.2082 236.629 54.6864 225.391 32.2095 202.914L33.5235 201.6C77.7503 245.827 149.71 245.827 193.937 201.6C238.163 157.373 238.163 85.414 193.937 41.1872L195.25 39.8733C240.204 84.8269 240.204 157.97 195.25 202.914C172.774 225.391 143.252 236.629 113.73 236.629Z" fill="#0B315E"/>
<path d="M113.73 226.639C86.7709 226.639 59.8024 216.379 39.2731 195.85L40.5871 194.536C80.9187 234.868 146.532 234.868 186.854 194.536C227.186 154.204 227.186 88.5911 186.854 48.2688L188.168 46.9549C229.217 88.004 229.217 154.81 188.168 195.859C167.658 216.379 140.689 226.639 113.73 226.639Z" fill="#0B315E"/>
<path d="M113.73 216.65C89.3241 216.65 64.9182 207.359 46.3459 188.787L47.6599 187.473C84.0869 223.9 143.363 223.9 179.79 187.473C197.44 169.823 207.16 146.358 207.16 121.403C207.16 96.4472 197.44 72.9825 179.79 55.3328L181.104 54.0189C199.108 72.0134 209.014 95.9533 209.014 121.403C209.014 146.852 199.099 170.792 181.104 188.787C162.532 207.359 138.136 216.65 113.73 216.65Z" fill="#0B315E"/>
<path d="M113.73 206.66C91.8869 206.66 70.0437 198.347 53.4097 181.713L54.7237 180.399C87.2554 212.931 140.186 212.931 172.718 180.399C205.25 147.868 205.25 94.937 172.718 62.4052L174.032 61.0913C207.29 94.3499 207.29 148.464 174.032 181.723C157.416 198.338 135.573 206.66 113.73 206.66Z" fill="#0B315E"/>
<path d="M171.693 12L166.316 17.3676V12H171.693Z" fill="#0B315E"/>
<path d="M181.645 12L166.316 27.3293V21.9618L176.277 12H181.645Z" fill="#0B315E"/>
<path d="M211.446 12L166.316 57.1214V51.8377L206.153 12H211.446Z" fill="#0B315E"/>
<path d="M201.568 12L166.316 47.2435V41.8759L196.201 12H201.568Z" fill="#0B315E"/>
<path d="M191.607 12L166.316 37.2911V31.9142L186.239 12H191.607Z" fill="#0B315E"/>
</svg>
