<svg width="184" height="165" viewBox="0 0 184 165" fill="none" xmlns="http://www.w3.org/2000/svg">
<path d="M177.793 72.5712V60.1577M171.586 66.3645H184H171.586Z" stroke="#8BD2BD" stroke-miterlimit="10"/>
<path d="M177.793 42.0149V29.6013M171.586 35.8081H184H171.586Z" stroke="#8BD2BD" stroke-miterlimit="10"/>
<path d="M177.793 12.4135V0M171.586 6.20677H184H171.586Z" stroke="#8BD2BD" stroke-miterlimit="10"/>
<path d="M177.793 72.5712V60.1577M171.586 66.3645H184H171.586Z" stroke="#1D262D" stroke-width="2" stroke-miterlimit="10"/>
<path d="M177.793 42.0149V29.6013M171.586 35.8081H184H171.586Z" stroke="#1D262D" stroke-width="2" stroke-miterlimit="10"/>
<path d="M177.793 12.4135V0M171.586 6.20677H184H171.586Z" stroke="#1D262D" stroke-width="2" stroke-miterlimit="10"/>
<path d="M149.147 72.5712V60.1577M142.94 66.3645H155.353H142.94Z" stroke="#8BD2BD" stroke-miterlimit="10"/>
<path d="M149.147 42.0149V29.6013M142.94 35.8081H155.353H142.94Z" stroke="#8BD2BD" stroke-miterlimit="10"/>
<path d="M149.146 12.4135V0M142.939 6.20677H155.353H142.939Z" stroke="#8BD2BD" stroke-miterlimit="10"/>
<path d="M149.147 72.5712V60.1577M142.94 66.3645H155.353H142.94Z" stroke="#1D262D" stroke-width="2" stroke-miterlimit="10"/>
<path d="M149.147 42.0149V29.6013M142.94 35.8081H155.353H142.94Z" stroke="#1D262D" stroke-width="2" stroke-miterlimit="10"/>
<path d="M149.146 12.4135V0M142.939 6.20677H155.353H142.939Z" stroke="#1D262D" stroke-width="2" stroke-miterlimit="10"/>
<path d="M120.5 42.0149V29.6013M114.293 35.8081H126.707H114.293Z" stroke="#8BD2BD" stroke-miterlimit="10"/>
<path d="M120.5 12.4135V0M114.293 6.20677H126.706H114.293Z" stroke="#8BD2BD" stroke-miterlimit="10"/>
<path d="M120.5 42.0149V29.6013M114.293 35.8081H126.707H114.293Z" stroke="#1D262D" stroke-width="2" stroke-miterlimit="10"/>
<path d="M120.5 12.4135V0M114.293 6.20677H126.706H114.293Z" stroke="#1D262D" stroke-width="2" stroke-miterlimit="10"/>
<path d="M91.8534 42.0149V29.6013M85.6466 35.8081H98.0602H85.6466Z" stroke="#8BD2BD" stroke-miterlimit="10"/>
<path d="M91.8533 12.4135V0M85.6466 6.20677H98.0601H85.6466Z" stroke="#8BD2BD" stroke-miterlimit="10"/>
<path d="M91.8534 42.0149V29.6013M85.6466 35.8081H98.0602H85.6466Z" stroke="#1D262D" stroke-width="2" stroke-miterlimit="10"/>
<path d="M91.8533 12.4135V0M85.6466 6.20677H98.0601H85.6466Z" stroke="#1D262D" stroke-width="2" stroke-miterlimit="10"/>
<path d="M63.2067 42.0149V29.6013M56.9999 35.8081H69.4134H56.9999Z" stroke="#8BD2BD" stroke-miterlimit="10"/>
<path d="M63.2066 12.4135V0M56.9998 6.20677H69.4134H56.9998Z" stroke="#8BD2BD" stroke-miterlimit="10"/>
<path d="M63.2067 42.0149V29.6013M56.9999 35.8081H69.4134H56.9999Z" stroke="#1D262D" stroke-width="2" stroke-miterlimit="10"/>
<path d="M63.2066 12.4135V0M56.9998 6.20677H69.4134H56.9998Z" stroke="#1D262D" stroke-width="2" stroke-miterlimit="10"/>
<path d="M120.793 134.571V122.158M114.586 128.364H127H114.586Z" stroke="#8BD2BD" stroke-miterlimit="10"/>
<path d="M120.793 104.015V91.6013M114.586 97.8081H127H114.586Z" stroke="#8BD2BD" stroke-miterlimit="10"/>
<path d="M120.793 74.4135V62M114.586 68.2068H127H114.586Z" stroke="#8BD2BD" stroke-miterlimit="10"/>
<path d="M120.793 134.571V122.158M114.586 128.364H127H114.586Z" stroke="#1D262D" stroke-width="2" stroke-miterlimit="10"/>
<path d="M120.793 104.015V91.6013M114.586 97.8081H127H114.586Z" stroke="#1D262D" stroke-width="2" stroke-miterlimit="10"/>
<path d="M120.793 74.4135V62M114.586 68.2068H127H114.586Z" stroke="#1D262D" stroke-width="2" stroke-miterlimit="10"/>
<path d="M92.1466 134.571V122.158M85.9398 128.364H98.3533H85.9398Z" stroke="#8BD2BD" stroke-miterlimit="10"/>
<path d="M92.1466 104.015V91.6013M85.9398 97.8081H98.3533H85.9398Z" stroke="#8BD2BD" stroke-miterlimit="10"/>
<path d="M92.1461 74.4135V62M85.9394 68.2068H98.3529H85.9394Z" stroke="#8BD2BD" stroke-miterlimit="10"/>
<path d="M92.1466 134.571V122.158M85.9398 128.364H98.3533H85.9398Z" stroke="#1D262D" stroke-width="2" stroke-miterlimit="10"/>
<path d="M92.1466 104.015V91.6013M85.9398 97.8081H98.3533H85.9398Z" stroke="#1D262D" stroke-width="2" stroke-miterlimit="10"/>
<path d="M92.1461 74.4135V62M85.9394 68.2068H98.3529H85.9394Z" stroke="#1D262D" stroke-width="2" stroke-miterlimit="10"/>
<path d="M63.4999 104.015V91.6013M57.2932 97.8081H69.7067H57.2932Z" stroke="#8BD2BD" stroke-miterlimit="10"/>
<path d="M63.4995 74.4135V62M57.2927 68.2068H69.7063H57.2927Z" stroke="#8BD2BD" stroke-miterlimit="10"/>
<path d="M63.4999 104.015V91.6013M57.2932 97.8081H69.7067H57.2932Z" stroke="#1D262D" stroke-width="2" stroke-miterlimit="10"/>
<path d="M63.4995 74.4135V62M57.2927 68.2068H69.7063H57.2927Z" stroke="#1D262D" stroke-width="2" stroke-miterlimit="10"/>
<path d="M34.8534 104.015V91.6013M28.6467 97.8081H41.0602H28.6467Z" stroke="#8BD2BD" stroke-miterlimit="10"/>
<path d="M34.8533 74.4135V62M28.6466 68.2068H41.0601H28.6466Z" stroke="#8BD2BD" stroke-miterlimit="10"/>
<path d="M34.8534 104.015V91.6013M28.6467 97.8081H41.0602H28.6467Z" stroke="#1D262D" stroke-width="2" stroke-miterlimit="10"/>
<path d="M34.8533 74.4135V62M28.6466 68.2068H41.0601H28.6466Z" stroke="#1D262D" stroke-width="2" stroke-miterlimit="10"/>
<path d="M6.20667 104.015V91.6013M-9.76324e-05 97.8081H12.4134H-9.76324e-05Z" stroke="#8BD2BD" stroke-miterlimit="10"/>
<path d="M6.20661 74.4135V62M-0.000158668 68.2068H12.4134H-0.000158668Z" stroke="#8BD2BD" stroke-miterlimit="10"/>
<path d="M6.20667 104.015V91.6013M-9.76324e-05 97.8081H12.4134H-9.76324e-05Z" stroke="#1D262D" stroke-width="2" stroke-miterlimit="10"/>
<path d="M6.20661 74.4135V62M-0.000158668 68.2068H12.4134H-0.000158668Z" stroke="#1D262D" stroke-width="2" stroke-miterlimit="10"/>
<path d="M120.793 164.571V152.158M114.586 158.364H127H114.586Z" stroke="#8BD2BD" stroke-miterlimit="10"/>
<path d="M120.793 134.015V121.601M114.586 127.808H127H114.586Z" stroke="#8BD2BD" stroke-miterlimit="10"/>
<path d="M120.793 104.414V92M114.586 98.2068H127H114.586Z" stroke="#8BD2BD" stroke-miterlimit="10"/>
<path d="M120.793 164.571V152.158M114.586 158.364H127H114.586Z" stroke="#1D262D" stroke-width="2" stroke-miterlimit="10"/>
<path d="M120.793 134.015V121.601M114.586 127.808H127H114.586Z" stroke="#1D262D" stroke-width="2" stroke-miterlimit="10"/>
<path d="M120.793 104.414V92M114.586 98.2068H127H114.586Z" stroke="#1D262D" stroke-width="2" stroke-miterlimit="10"/>
<path d="M92.1466 164.571V152.158M85.9398 158.364H98.3533H85.9398Z" stroke="#8BD2BD" stroke-miterlimit="10"/>
<path d="M92.1466 134.015V121.601M85.9398 127.808H98.3533H85.9398Z" stroke="#8BD2BD" stroke-miterlimit="10"/>
<path d="M92.1461 104.414V92M85.9394 98.2068H98.3529H85.9394Z" stroke="#8BD2BD" stroke-miterlimit="10"/>
<path d="M92.1466 164.571V152.158M85.9398 158.364H98.3533H85.9398Z" stroke="#1D262D" stroke-width="2" stroke-miterlimit="10"/>
<path d="M92.1466 134.015V121.601M85.9398 127.808H98.3533H85.9398Z" stroke="#1D262D" stroke-width="2" stroke-miterlimit="10"/>
<path d="M92.1461 104.414V92M85.9394 98.2068H98.3529H85.9394Z" stroke="#1D262D" stroke-width="2" stroke-miterlimit="10"/>
<path d="M63.4999 134.015V121.601M57.2932 127.808H69.7067H57.2932Z" stroke="#8BD2BD" stroke-miterlimit="10"/>
<path d="M63.4995 104.414V92M57.2927 98.2068H69.7063H57.2927Z" stroke="#8BD2BD" stroke-miterlimit="10"/>
<path d="M63.4999 134.015V121.601M57.2932 127.808H69.7067H57.2932Z" stroke="#1D262D" stroke-width="2" stroke-miterlimit="10"/>
<path d="M63.4995 104.414V92M57.2927 98.2068H69.7063H57.2927Z" stroke="#1D262D" stroke-width="2" stroke-miterlimit="10"/>
<path d="M34.8534 134.015V121.601M28.6467 127.808H41.0602H28.6467Z" stroke="#8BD2BD" stroke-miterlimit="10"/>
<path d="M34.8533 104.414V92M28.6466 98.2068H41.0601H28.6466Z" stroke="#8BD2BD" stroke-miterlimit="10"/>
<path d="M34.8534 134.015V121.601M28.6467 127.808H41.0602H28.6467Z" stroke="#1D262D" stroke-width="2" stroke-miterlimit="10"/>
<path d="M34.8533 104.414V92M28.6466 98.2068H41.0601H28.6466Z" stroke="#1D262D" stroke-width="2" stroke-miterlimit="10"/>
<path d="M6.20667 134.015V121.601M-9.76324e-05 127.808H12.4134H-9.76324e-05Z" stroke="#8BD2BD" stroke-miterlimit="10"/>
<path d="M6.20661 104.414V92M-0.000158668 98.2068H12.4134H-0.000158668Z" stroke="#8BD2BD" stroke-miterlimit="10"/>
<path d="M6.20667 134.015V121.601M-9.76324e-05 127.808H12.4134H-9.76324e-05Z" stroke="#1D262D" stroke-width="2" stroke-miterlimit="10"/>
<path d="M6.20661 104.414V92M-0.000158668 98.2068H12.4134H-0.000158668Z" stroke="#1D262D" stroke-width="2" stroke-miterlimit="10"/>
</svg>
