<svg width="341" height="341" viewBox="0 0 341 341" fill="none" xmlns="http://www.w3.org/2000/svg">
<path d="M96.0737 234.818C72.638 215.55 58.1092 188.305 55.157 158.109L56.603 157.967C62.6092 219.51 117.557 264.687 179.1 258.681C208.913 255.771 235.808 241.427 254.826 218.295C273.844 195.163 282.723 165.996 279.809 136.189L281.255 136.048C284.202 166.25 275.21 195.786 255.941 219.221C236.673 242.657 209.429 257.186 179.232 260.138C149.044 263.079 119.509 254.086 96.0737 234.818Z" fill="#0B315E"/>
<path d="M101.066 228.747C80.1402 211.543 65.7679 186.379 62.9354 157.356L64.3815 157.215C69.9683 214.461 121.089 256.491 178.341 250.909C235.587 245.322 277.621 194.196 272.034 136.95L273.48 136.808C279.145 194.854 236.528 246.69 178.477 252.36C149.459 255.187 121.986 245.947 101.066 228.747Z" fill="#0B315E"/>
<path d="M105.999 222.746C85.7882 206.13 73.2611 182.634 70.7142 156.591L72.1603 156.45C74.6644 182.109 87.0119 205.249 106.919 221.616C126.831 237.987 151.927 245.622 177.576 243.119C203.235 240.615 226.375 228.267 242.742 208.361C259.114 188.448 266.748 163.352 264.245 137.703L265.691 137.562C268.232 163.601 260.48 189.081 243.863 209.292C227.247 229.502 203.751 242.029 177.708 244.576C151.684 247.111 126.21 239.363 105.999 222.746Z" fill="#0B315E"/>
<path d="M110.991 216.675C93.1612 202.016 80.9117 180.569 78.4976 155.833L79.9436 155.692C84.6937 204.364 128.154 240.096 176.827 235.346C225.499 230.596 261.231 187.135 256.481 138.463L257.927 138.322C262.755 187.794 226.436 231.969 176.968 236.792C152.232 239.206 128.821 231.334 110.991 216.675Z" fill="#0B315E"/>
<path d="M115.951 210.641C99.6689 197.254 88.4756 177.666 86.2707 155.073L87.7167 154.932C92.0485 199.317 131.676 231.898 176.056 227.562C220.442 223.23 253.023 183.602 248.687 139.222L250.133 139.081C254.541 184.256 221.368 224.605 176.193 229.014C153.616 231.222 132.233 224.027 115.951 210.641Z" fill="#0B315E"/>
<path d="M120.913 204.607C106.173 192.488 96.0461 174.758 94.0514 154.319L95.4974 154.178C99.4098 194.266 135.211 223.701 175.299 219.788C194.723 217.893 212.245 208.547 224.637 193.475C237.029 178.403 242.81 159.405 240.914 139.981L242.36 139.84C244.299 159.648 238.394 179.025 225.757 194.396C213.12 209.766 195.244 219.302 175.44 221.234C155.001 223.229 135.653 216.726 120.913 204.607Z" fill="#0B315E"/>
<path d="M125.874 198.573C112.681 187.727 103.617 171.86 101.83 153.554L103.276 153.413C106.77 189.215 138.738 215.498 174.54 212.004C210.342 208.51 236.625 176.542 233.131 140.74L234.577 140.599C238.149 177.201 211.278 209.884 174.676 213.456C156.391 215.24 139.066 209.42 125.874 198.573Z" fill="#0B315E"/>
</svg>
