<svg width="84" height="66" viewBox="0 0 84 66" fill="none" xmlns="http://www.w3.org/2000/svg">
<path d="M81.5337 60.9195H76.5692V28.0841C76.5692 26.7244 75.465 25.622 74.1029 25.622H60.4857C59.1237 25.622 58.0195 26.7244 58.0195 28.0841V60.9195H51.275V18.3292C51.275 16.9695 50.1708 15.8671 48.8087 15.8671H35.1915C33.8294 15.8671 32.7252 16.9695 32.7252 18.3292V60.9195H25.9807V25.4785C25.9807 24.1187 24.8765 23.0164 23.5144 23.0164H9.89706C8.53499 23.0164 7.4308 24.1187 7.4308 25.4785V60.9195H2.46626C1.1042 60.9195 0 62.0219 0 63.3816C0 64.7414 1.1042 65.8438 2.46626 65.8438H81.5337C82.8958 65.8438 84 64.7414 84 63.3816C84 62.0219 82.8958 60.9195 81.5337 60.9195ZM12.3633 60.9195V27.9407H21.0482V60.9195H12.3633ZM37.6576 60.9195V20.7914H46.3424V60.9195H37.6576ZM62.952 60.9195V30.5463H71.6368V60.9195H62.952Z" fill="#5B5B5B"/>
<path d="M82.1969 9.52617C82.2787 8.49716 81.6789 7.23357 80.3055 6.91399L72.3503 4.98037C71.0284 4.65816 69.6974 5.46985 69.3763 6.79121C69.0551 8.11257 69.8658 9.4441 71.1871 9.76517L73.4372 10.3121L67.0589 14.2481L42.8746 0.479709C42.1793 0.0836296 41.3343 0.0503085 40.6104 0.390579L16.5709 11.6742L5.079 4.50222C3.92556 3.78179 2.40673 4.13372 1.68663 5.28732C0.966698 6.44076 1.31829 7.95958 2.4719 8.67968L15.1005 16.5611C15.8091 17.0034 16.6938 17.0563 17.4502 16.7012L41.5473 5.3904L65.8915 19.2499C66.525 19.5821 67.4079 19.7543 68.4028 19.2054L76.1348 14.4339L75.6199 16.8455C75.0532 20.0534 79.5943 20.9644 80.4355 17.874L82.1423 9.88122C82.1616 9.76927 82.1689 9.78503 82.1969 9.52617Z" fill="#367166"/>
</svg>
