<svg width="80" height="84" viewBox="0 0 80 84" fill="none" xmlns="http://www.w3.org/2000/svg">
<path d="M54.1557 32.0529H75.9728C76.9219 32.0529 77.835 31.6518 78.4778 30.9522C79.1211 30.252 79.4442 29.3075 79.3638 28.3603C79.0606 24.7802 77.44 21.4615 74.8004 19.0155C74.0043 18.278 73.1368 17.6398 72.2144 17.1075C73.9951 15.2911 75.0952 12.8015 75.0952 10.059C75.0952 4.51254 70.5953 0 65.0642 0C59.533 0 55.0331 4.51254 55.0331 10.0592C55.0331 12.8016 56.1332 15.2913 57.9141 17.1076C56.9919 17.64 56.1241 18.2782 55.3283 19.0157C52.6885 21.4615 51.0679 24.7803 50.7649 28.3605C50.6846 29.3075 51.0075 30.2523 51.6508 30.9524C52.2936 31.6518 53.2066 32.0529 54.1557 32.0529ZM59.955 10.0592C59.955 7.22646 62.247 4.92188 65.0642 4.92188C67.8814 4.92188 70.1733 7.22646 70.1733 10.0592C70.1733 12.892 67.8814 15.1965 65.0642 15.1965C62.247 15.1965 59.955 12.8919 59.955 10.0592ZM58.6735 22.6259C60.4186 21.0089 62.6883 20.1183 65.0642 20.1183C67.4402 20.1183 69.7097 21.0089 71.4548 22.6259C72.7799 23.8535 73.7149 25.4148 74.1728 27.131H55.9556C56.4135 25.4148 57.3485 23.8537 58.6735 22.6259Z" fill="#5B5B5B"/>
<path d="M13.5299 32.0529H35.3467C36.2958 32.0529 37.209 31.6518 37.8518 30.9522C38.4951 30.252 38.8181 29.3075 38.7377 28.3603C38.4345 24.7802 36.8139 21.4615 34.1743 19.0155C33.3785 18.278 32.5107 17.6398 31.5885 17.1075C33.3694 15.291 34.4695 12.8015 34.4695 10.059C34.4695 4.51254 29.9696 0 24.4384 0C18.9072 0 14.4073 4.51254 14.4073 10.0592C14.4073 12.8016 15.5073 15.2913 17.2882 17.1076C16.366 17.64 15.4983 18.2782 14.7024 19.0157C12.0626 21.4617 10.442 24.7803 10.139 28.3605C10.0588 29.3075 10.3817 30.2521 11.0249 30.9524C11.6677 31.6518 12.5808 32.0529 13.5299 32.0529ZM19.3291 10.0592C19.3291 7.22646 21.6211 4.92188 24.4384 4.92188C27.2557 4.92188 29.5476 7.22646 29.5476 10.0592C29.5476 12.892 27.2557 15.1965 24.4384 15.1965C21.6211 15.1965 19.3291 12.8919 19.3291 10.0592ZM18.0478 22.6259C19.7929 21.0089 22.0624 20.1183 24.4384 20.1183C26.8143 20.1183 29.0838 21.0089 30.8289 22.6259C32.1541 23.8535 33.0891 25.4148 33.547 27.131H15.3296C15.7875 25.4148 16.7225 23.8537 18.0478 22.6259Z" fill="#5B5B5B"/>
<path d="M74.8005 59.9744C74.0045 59.2369 73.1369 58.5987 72.2146 58.0663C73.9953 56.25 75.0954 53.7603 75.0954 51.018C75.0954 45.4712 70.5954 40.9589 65.0644 40.9589C59.5332 40.9589 55.0333 45.4714 55.0333 51.018C55.0333 53.7603 56.1333 56.25 57.9142 58.0663C56.992 58.5987 56.1243 59.2369 55.3284 59.9744C52.6887 62.4202 51.0681 65.739 50.765 69.3192C50.6848 70.2663 51.0077 71.2112 51.651 71.9112C52.2938 72.6108 53.2066 73.0119 54.1559 73.0119H75.9729C76.922 73.0119 77.835 72.6108 78.478 71.9112C79.1213 71.2112 79.4443 70.2665 79.3639 69.3192C79.0609 65.7389 77.4403 62.4204 74.8005 59.9744ZM59.9553 51.018C59.9553 48.1852 62.2473 45.8807 65.0646 45.8807C67.8817 45.8807 70.1736 48.1853 70.1736 51.018C70.1736 53.8507 67.8817 56.1553 65.0646 56.1553C62.2473 56.1551 59.9553 53.8506 59.9553 51.018ZM55.956 68.0899C56.4139 66.3736 57.3489 64.8122 58.6738 63.5846C60.419 61.9676 62.6886 61.077 65.0646 61.077C67.4405 61.077 69.71 61.9676 71.4551 63.5846C72.7803 64.8122 73.7153 66.3736 74.1732 68.0899H55.956Z" fill="#5B5B5B"/>
<path d="M24.4378 36.9924C12.5154 36.9924 2.81584 46.693 2.81584 58.6165C2.81584 64.0929 4.86203 69.1005 8.23007 72.9146L1.34634 79.7991C0.385422 80.7602 0.385586 82.3185 1.3465 83.2796C1.82704 83.7598 2.45671 84 3.08655 84C3.71638 84 4.34638 83.7596 4.82676 83.2791L11.8887 76.2163C15.4295 78.7486 19.7627 80.2403 24.4378 80.2403C36.3602 80.2403 46.0598 70.5398 46.0598 58.6162C46.0598 46.6926 36.3602 36.9924 24.4378 36.9924ZM24.4378 75.3186C15.2293 75.3186 7.73772 67.826 7.73772 58.6164C7.73772 49.4067 15.2293 41.9141 24.4378 41.9141C33.6463 41.9141 41.1379 49.4067 41.1379 58.6164C41.1379 67.826 33.6463 75.3186 24.4378 75.3186Z" fill="#367166"/>
<path d="M31.3019 51.9561L21.5024 61.7566L17.5723 57.826C16.6112 56.8651 15.0531 56.8652 14.0919 57.8258C13.1309 58.7867 13.1308 60.345 14.0917 61.3062L19.7622 66.9772C20.2429 67.4578 20.8727 67.6981 21.5024 67.6981C22.1321 67.6981 22.7621 67.4578 23.2424 66.9774L23.2426 66.9772L34.7823 55.4362C35.7432 54.4752 35.743 52.9169 34.7821 51.9558C33.8209 50.9949 32.2628 50.9951 31.3019 51.9561Z" fill="#367166"/>
</svg>
